<?xml version="1.0" standalone="no"?>
<!DOCTYPE svg PUBLIC "-//W3C//DTD SVG 20010904//EN"
 "http://www.w3.org/TR/2001/REC-SVG-20010904/DTD/svg10.dtd">
<svg version="1.0" xmlns="http://www.w3.org/2000/svg"
 width="500.000000pt" height="500.000000pt" viewBox="0 0 500.000000 500.000000"
 preserveAspectRatio="xMidYMid meet">
<metadata>
Created by potrace 1.13, written by Peter Selinger 2001-2015
</metadata>
<g transform="translate(0.000000,500.000000) scale(0.100000,-0.100000)"
fill="#000000" stroke="none">
<path d="M2792 4980 c-6 -11 -12 -36 -12 -57 0 -53 -40 -195 -54 -190 -6 2
-13 26 -16 53 -4 36 -10 50 -23 52 -25 5 -32 -24 -18 -76 11 -41 10 -49 -14
-97 -28 -58 -32 -117 -10 -155 8 -14 14 -30 15 -36 0 -5 -32 -18 -71 -27 -291
-70 -524 -268 -701 -596 -55 -101 -72 -144 -123 -296 -49 -150 -68 -262 -69
-410 l-1 -129 -40 -8 c-64 -14 -180 -75 -227 -121 -128 -124 -123 -259 16
-431 31 -38 56 -73 56 -78 0 -5 -6 -24 -14 -42 -21 -50 -51 -66 -122 -66 -74
0 -94 -6 -94 -30 0 -30 23 -41 57 -28 33 13 83 4 83 -15 0 -11 -206 -58 -256
-57 -28 0 -74 -37 -74 -59 0 -43 53 -54 101 -21 36 27 233 69 242 52 7 -9
-109 -115 -175 -161 -39 -26 -48 -38 -48 -61 0 -31 22 -50 59 -50 11 0 42 22
69 49 71 71 213 174 224 163 6 -6 5 -18 -2 -32 -7 -13 -25 -60 -40 -105 -16
-47 -48 -113 -74 -150 -52 -76 -56 -97 -24 -119 55 -39 76 -15 132 145 50 145
133 319 153 319 19 0 16 -48 -7 -99 -25 -54 -25 -83 -1 -105 15 -14 24 -15 40
-6 12 6 21 12 21 13 2 16 52 236 64 277 33 114 13 174 -94 284 -38 40 -70 78
-70 84 0 7 32 28 71 48 59 29 74 33 84 22 7 -7 40 -76 75 -153 34 -77 80 -178
102 -225 56 -119 67 -188 44 -281 -38 -160 -123 -283 -302 -439 -122 -106
-367 -298 -556 -436 -190 -139 -267 -235 -309 -389 -18 -65 -21 -97 -16 -171
3 -49 12 -107 21 -128 9 -21 16 -45 16 -53 0 -26 88 -150 140 -196 144 -129
353 -180 560 -137 174 35 272 95 351 211 53 79 59 110 26 143 -15 14 -32 26
-38 26 -7 0 -51 -40 -98 -88 -91 -94 -147 -133 -227 -157 -103 -31 -231 -7
-340 63 -123 80 -169 167 -168 317 1 135 42 213 159 305 337 263 450 355 610
496 282 247 362 348 425 535 43 125 52 203 59 504 7 338 12 357 97 416 l48 33
62 -34 c65 -35 183 -143 236 -216 17 -24 41 -67 52 -96 17 -44 26 -54 48 -56
19 -2 30 3 38 18 13 25 7 46 -30 108 -29 48 -48 126 -33 135 14 9 109 -60 160
-117 65 -72 84 -81 117 -55 14 11 26 26 26 34 0 14 -65 75 -80 75 -16 0 -130
112 -130 127 0 14 18 15 134 11 138 -6 156 -2 156 32 0 46 -59 61 -140 36 -25
-7 -73 -16 -107 -20 -50 -6 -63 -4 -63 7 0 16 63 83 103 110 29 19 35 45 15
65 -19 19 -34 14 -70 -24 -39 -42 -113 -88 -128 -79 -18 11 -11 29 30 79 45
54 49 71 21 85 -23 13 -43 -6 -74 -69 -15 -31 -28 -45 -42 -45 -17 0 -20 8
-23 50 -6 128 -58 225 -136 255 -27 10 -28 13 -22 53 8 46 46 118 83 155 l25
24 68 -69 c71 -71 157 -138 295 -227 69 -45 81 -57 91 -91 11 -42 39 -59 50
-30 4 9 -1 33 -9 53 -25 56 -32 112 -16 112 8 0 52 -36 99 -80 85 -81 121 -96
128 -57 2 11 -8 23 -29 35 -46 24 -136 109 -126 119 7 7 94 -20 184 -58 25
-10 35 -11 44 -2 17 17 -6 43 -37 43 -37 0 -174 67 -174 85 0 8 1 15 3 15 1 0
38 -7 81 -15 86 -16 110 -10 90 22 -8 12 -26 18 -65 19 -107 4 -144 41 -67 66
50 15 63 44 25 53 -16 4 -40 -1 -68 -15 -86 -44 -199 0 -199 78 0 25 8 41 62
121 29 42 23 109 -13 166 l-31 49 33 28 c67 56 121 68 301 66 176 -1 216 6
319 57 30 15 72 44 94 65 58 55 141 108 179 116 70 13 146 105 146 177 0 60
-35 97 -146 152 -103 51 -144 77 -203 128 -48 41 -113 67 -195 77 -148 18
-277 -17 -398 -109 -94 -71 -209 -112 -346 -125 -62 -6 -72 5 -48 53 20 39 55
48 119 31 42 -11 51 -10 65 3 28 29 -1 47 -74 47 -102 0 -98 30 6 50 93 18
113 25 124 42 8 14 7 21 -6 34 -16 16 -20 16 -65 -3 -61 -26 -142 -47 -149
-40 -11 11 29 57 77 88 51 32 66 70 34 83 -23 9 -41 -2 -69 -42 -32 -47 -93
-95 -101 -82 -4 6 5 46 19 90 27 81 30 107 20 134 -8 22 -27 20 -42 -4z m969
-643 c49 -33 53 -79 7 -107 -46 -28 -82 -25 -120 9 -29 26 -31 30 -19 57 12
31 54 63 82 64 9 0 31 -10 50 -23z"/>
</g>
</svg>
