<?xml version="1.0" standalone="no"?>
<!DOCTYPE svg PUBLIC "-//W3C//DTD SVG 20010904//EN"
 "http://www.w3.org/TR/2001/REC-SVG-20010904/DTD/svg10.dtd">
<svg version="1.0" xmlns="http://www.w3.org/2000/svg"
 width="400.000000pt" height="400.000000pt" viewBox="0 0 400.000000 400.000000"
 preserveAspectRatio="xMidYMid meet">
<metadata>
Created by potrace 1.13, written by Peter Selinger 2001-2015
</metadata>
<g transform="translate(0.000000,400.000000) scale(0.100000,-0.100000)"
fill="#000000" stroke="none">
<path d="M1425 3986 c-125 -48 -207 -150 -222 -276 -6 -50 -7 -52 -32 -45
-170 45 -331 -34 -392 -195 -24 -64 -24 -136 0 -236 11 -44 43 -173 71 -289
28 -115 63 -255 77 -310 36 -142 37 -135 -26 -156 -64 -22 -101 -53 -101 -85
0 -13 -6 -47 -14 -76 -49 -186 -154 -389 -293 -571 -33 -42 -42 -61 -34 -70 5
-7 17 -62 25 -122 72 -509 206 -922 386 -1191 71 -106 199 -231 285 -280 38
-21 105 -49 149 -61 78 -23 81 -23 732 -23 551 0 663 2 719 15 274 64 480 259
559 530 19 65 20 107 26 640 l7 570 41 310 c47 351 98 752 112 868 11 91 17
132 32 209 9 49 8 65 -11 123 -12 37 -33 84 -47 105 -67 101 -211 159 -324
130 -70 -17 -75 -17 -72 5 11 74 3 183 -16 227 -29 66 -94 133 -161 165 -76
37 -191 38 -264 3 -60 -29 -128 -95 -154 -152 -22 -47 -38 -132 -78 -408 -8
-58 -24 -166 -35 -240 -11 -74 -25 -164 -30 -200 -5 -36 -23 -157 -40 -270
-17 -113 -34 -231 -37 -262 -10 -100 -19 -84 -83 152 -24 85 -51 184 -62 220
-10 36 -24 83 -30 105 -18 66 -26 97 -46 165 -11 36 -66 229 -122 430 -117
411 -132 446 -222 503 -29 19 -68 39 -87 45 -42 15 -146 13 -186 -2z m148
-127 c45 -12 100 -59 115 -96 6 -16 56 -188 112 -383 55 -195 104 -368 109
-385 4 -16 13 -48 19 -70 6 -22 20 -71 32 -110 11 -38 56 -198 100 -355 44
-157 89 -314 100 -350 10 -36 22 -77 26 -93 8 -34 39 -57 79 -57 45 0 71 23
79 70 3 22 20 131 36 243 17 111 35 229 40 262 5 33 18 125 30 205 12 80 26
172 31 205 5 33 14 92 19 130 10 74 43 293 61 410 6 39 14 95 19 126 14 98 57
151 143 179 87 28 193 -34 221 -129 11 -41 10 -64 -10 -204 -12 -86 -25 -165
-28 -175 -5 -16 -34 -214 -57 -387 -10 -79 -18 -140 -39 -285 -32 -231 -69
-503 -75 -558 -6 -57 -5 -66 16 -88 28 -30 59 -31 86 -1 17 18 25 54 42 182
12 88 26 187 31 220 13 78 99 679 111 770 19 148 40 189 115 225 92 43 195 3
243 -93 l24 -49 -28 -216 c-15 -119 -31 -248 -36 -287 -4 -38 -22 -178 -39
-310 -17 -132 -35 -274 -40 -315 -5 -41 -18 -147 -30 -235 -17 -139 -20 -230
-24 -690 -3 -580 -3 -573 -66 -700 -34 -71 -90 -140 -157 -196 -58 -49 -117
-80 -209 -111 l-69 -23 -665 0 -665 0 -65 24 c-90 33 -154 76 -231 157 -82 85
-135 166 -204 309 -108 224 -194 525 -245 855 -7 41 -16 99 -21 129 l-9 54 74
111 c102 153 197 351 236 496 23 85 25 87 78 95 109 15 167 -60 179 -230 5
-75 3 -85 -27 -150 -79 -171 -121 -325 -122 -445 -1 -138 37 -199 142 -229 25
-7 55 -17 68 -22 13 -5 67 -14 120 -19 219 -24 370 -102 456 -237 43 -68 70
-84 111 -65 96 44 -45 251 -236 347 -64 33 -160 62 -254 78 l-80 13 -21 110
c-11 60 -26 141 -33 179 -7 39 -19 103 -27 143 -14 71 -14 73 12 124 24 48 26
58 22 162 -7 171 -54 278 -152 341 -52 33 -53 35 -70 107 -18 78 -65 272 -142
584 -57 232 -56 261 9 329 68 70 158 81 237 29 51 -34 66 -66 116 -242 24 -86
48 -170 53 -187 11 -41 19 -68 111 -395 90 -320 99 -353 111 -395 47 -159 89
-316 89 -328 0 -8 10 -26 21 -41 27 -35 73 -33 101 4 18 25 18 27 -2 110 -12
47 -25 99 -30 115 -14 44 -46 156 -80 280 -17 61 -35 126 -40 145 -46 166 -91
329 -110 400 -12 47 -26 96 -30 110 -8 25 -13 45 -50 180 -32 118 -38 138 -71
255 -38 130 -41 198 -11 247 29 46 54 67 99 84 47 16 67 17 116 3z"/>
</g>
</svg>
