<?xml version="1.0" standalone="no"?>
<!DOCTYPE svg PUBLIC "-//W3C//DTD SVG 20010904//EN"
 "http://www.w3.org/TR/2001/REC-SVG-20010904/DTD/svg10.dtd">
<svg version="1.0" xmlns="http://www.w3.org/2000/svg"
 width="300.000000pt" height="300.000000pt" viewBox="0 0 300.000000 300.000000"
 preserveAspectRatio="xMidYMid meet">
<metadata>
Created by potrace 1.13, written by Peter Selinger 2001-2015
</metadata>
<g transform="translate(0.000000,300.000000) scale(0.100000,-0.100000)"
fill="#000000" stroke="none">
<path d="M1667 2943 c-3 -27 -11 -61 -18 -78 l-12 -30 -6 29 c-10 47 -32 46
-30 -1 2 -22 -3 -54 -10 -71 -12 -28 -12 -60 0 -100 3 -10 -13 -19 -49 -28
-174 -46 -322 -179 -420 -377 -65 -133 -93 -236 -99 -363 l-6 -110 -46 -17
c-111 -40 -165 -99 -165 -182 -1 -46 4 -60 39 -109 22 -32 44 -64 50 -71 7
-10 3 -22 -11 -42 -17 -22 -31 -29 -70 -33 -35 -4 -49 -9 -49 -20 0 -11 9 -14
38 -12 58 5 43 -15 -20 -28 -32 -6 -71 -14 -88 -17 -30 -6 -45 -18 -45 -39 0
-22 30 -24 68 -4 20 10 62 22 92 25 l55 7 -35 -34 c-19 -18 -53 -47 -74 -64
-28 -22 -37 -36 -33 -47 10 -27 51 -20 83 14 36 39 113 93 121 85 9 -9 -37
-128 -64 -164 -29 -38 -27 -76 3 -80 21 -3 29 10 68 114 32 87 78 176 87 167
6 -6 2 -28 -8 -56 -18 -50 -10 -76 22 -64 18 7 15 1 45 129 26 118 21 143 -45
208 -25 24 -45 47 -45 51 0 10 65 49 82 49 8 0 40 -59 81 -149 74 -163 80
-201 51 -288 -40 -118 -118 -196 -422 -425 -190 -144 -223 -177 -253 -258 -29
-78 -24 -205 11 -274 32 -63 107 -130 176 -155 69 -26 202 -28 286 -5 93 26
195 131 181 184 -10 39 -35 31 -97 -28 -34 -33 -77 -67 -96 -77 -79 -41 -212
-11 -282 63 -42 44 -58 87 -58 157 0 85 29 126 166 233 186 145 312 252 405
344 143 140 177 242 182 534 3 185 8 205 63 241 25 16 28 16 62 -3 55 -28 138
-115 164 -170 26 -54 58 -71 58 -32 0 13 -9 41 -20 63 -21 41 -26 75 -12 75
17 0 88 -57 106 -84 21 -32 59 -33 64 0 2 15 -10 28 -46 52 -56 36 -78 59 -68
70 5 4 44 6 88 5 76 -1 79 0 76 20 -3 19 -9 22 -43 21 -22 0 -61 -4 -87 -9
-68 -11 -63 9 16 73 17 13 11 42 -8 42 -7 0 -25 -13 -40 -29 -35 -36 -66 -46
-66 -22 0 10 9 26 20 36 11 10 20 24 20 32 0 24 -32 10 -50 -22 -26 -47 -44
-38 -51 26 -7 62 -28 101 -64 117 -14 6 -25 19 -25 28 0 23 28 79 50 99 18 17
21 15 68 -33 26 -27 87 -74 134 -105 57 -36 88 -63 90 -77 2 -11 8 -20 13 -20
11 1 11 18 0 68 -10 43 2 41 56 -13 44 -44 79 -58 79 -31 0 8 -8 17 -18 20
-10 4 -32 20 -48 38 l-29 31 34 -7 c19 -3 48 -13 64 -21 30 -15 52 -12 42 6
-4 5 -13 9 -22 9 -21 0 -103 41 -103 51 0 5 22 7 50 6 27 -1 49 2 50 8 0 6
-10 10 -23 11 -68 3 -103 34 -49 42 12 2 22 10 22 19 0 12 -6 14 -27 8 -68
-17 -94 -17 -118 -1 -31 20 -33 58 -5 93 24 31 26 94 5 127 -14 21 -13 24 3
39 38 35 86 46 193 44 122 -2 157 10 264 92 36 28 74 51 83 51 21 1 56 28 71
57 29 56 4 103 -72 137 -29 13 -74 40 -102 61 -64 49 -105 64 -181 65 -77 0
-129 -18 -201 -70 -63 -45 -135 -70 -200 -70 -46 0 -51 6 -29 35 11 15 21 17
59 12 33 -5 46 -3 50 7 8 21 -2 26 -52 26 -42 1 -44 2 -27 15 10 8 38 17 62
21 23 3 45 13 48 20 9 22 -16 26 -57 9 -20 -8 -47 -15 -59 -15 -21 1 -18 5 20
40 24 22 41 44 37 50 -11 17 -23 11 -64 -32 -35 -37 -41 -40 -41 -22 0 12 7
41 15 64 15 44 13 60 -9 60 -8 0 -15 -18 -19 -47z"/>
</g>
</svg>
