<?xml version="1.0" standalone="no"?>
<!DOCTYPE svg PUBLIC "-//W3C//DTD SVG 20010904//EN"
 "http://www.w3.org/TR/2001/REC-SVG-20010904/DTD/svg10.dtd">
<svg version="1.0" xmlns="http://www.w3.org/2000/svg"
 width="200.000000pt" height="200.000000pt" viewBox="0 0 200.000000 200.000000"
 preserveAspectRatio="xMidYMid meet">
<metadata>
Created by potrace 1.13, written by Peter Selinger 2001-2015
</metadata>
<g transform="translate(0.000000,200.000000) scale(0.100000,-0.100000)"
fill="#000000" stroke="none">
<path d="M694 1986 c-40 -18 -83 -74 -90 -118 l-6 -33 -58 0 c-62 0 -95 -16
-133 -66 -35 -47 -32 -92 17 -294 26 -105 49 -197 52 -207 3 -11 -6 -22 -32
-35 -33 -16 -39 -25 -59 -93 -24 -85 -50 -139 -108 -225 -46 -67 -46 -72 -21
-225 56 -332 185 -580 342 -657 l57 -28 370 0 c357 0 372 1 415 21 72 35 127
80 164 136 58 88 66 139 66 424 0 240 2 268 45 605 52 406 54 436 28 481 -32
56 -79 80 -146 76 l-57 -3 0 50 c0 100 -61 165 -155 165 -60 0 -108 -27 -137
-76 -12 -21 -34 -138 -70 -382 -29 -193 -54 -350 -55 -348 -2 2 -52 175 -112
385 -83 292 -114 388 -132 408 -47 50 -122 66 -185 39z m129 -78 c17 -17 53
-133 146 -463 68 -242 128 -446 134 -452 11 -15 53 -17 61 -4 3 4 33 192 66
417 33 225 66 422 72 437 11 28 53 57 82 57 31 0 66 -24 81 -56 14 -30 13 -46
-15 -231 -61 -398 -87 -608 -78 -625 10 -21 31 -23 46 -5 6 6 31 154 56 327
24 174 48 323 52 333 7 19 54 47 79 47 30 0 72 -29 84 -58 10 -24 4 -95 -38
-425 -49 -382 -51 -405 -51 -646 0 -289 -7 -324 -82 -400 -87 -88 -76 -86
-482 -89 l-359 -3 -53 26 c-72 35 -126 100 -184 220 -57 116 -92 233 -120 397
l-19 117 53 85 c44 70 87 168 112 254 5 19 68 15 87 -6 9 -10 21 -41 27 -69
10 -46 9 -56 -16 -114 -55 -130 -70 -242 -38 -287 20 -29 49 -40 149 -57 44
-7 96 -19 115 -27 46 -20 97 -63 116 -99 17 -33 48 -38 63 -10 8 15 5 28 -17
59 -15 22 -39 50 -54 62 -40 31 -127 68 -180 75 l-46 7 -22 119 c-14 76 -19
130 -14 147 4 15 8 59 8 97 0 80 -25 142 -68 165 -29 15 -27 9 -86 253 -22 93
-40 184 -40 203 0 76 98 115 151 60 20 -21 89 -250 226 -750 11 -40 38 -56 59
-35 15 15 8 46 -86 385 -56 203 -108 391 -116 418 -21 74 -18 113 11 141 33
34 96 35 128 3z"/>
</g>
</svg>
